<svg id="Layer_1" data-name="Layer 1" xmlns="http://www.w3.org/2000/svg" viewBox="0 0 85.3 28.17"><defs><style>.cls-1{fill:#231f20;}.cls-2{fill:#84ccaa;}.cls-3{fill:#d0e290;}</style></defs><path class="cls-1" d="M68,179.69a.4.4,0,0,1-.29-.12.41.41,0,0,1-.12-.31v-8a.39.39,0,0,1,.12-.3.4.4,0,0,1,.29-.12h1.66a.41.41,0,0,1,.31.12.39.39,0,0,1,.12.3V172a3.52,3.52,0,0,1,1.13-.9,3.79,3.79,0,0,1,1.7-.35,3.35,3.35,0,0,1,1.75.45,3.13,3.13,0,0,1,1.19,1.3,4.67,4.67,0,0,1,.43,2.08v4.72a.39.39,0,0,1-.13.31.41.41,0,0,1-.3.12H74a.41.41,0,0,1-.43-.43v-4.62a2.06,2.06,0,0,0-.43-1.4,1.59,1.59,0,0,0-1.26-.5,1.67,1.67,0,0,0-1.27.5,1.93,1.93,0,0,0-.48,1.4v4.62a.45.45,0,0,1-.11.31.4.4,0,0,1-.29.12Z" transform="translate(-42.81 -159.76)"/><path class="cls-1" d="M79.58,179.69a.41.41,0,0,1-.31-.12.45.45,0,0,1-.11-.31v-6.38H77.83a.41.41,0,0,1-.3-.12.41.41,0,0,1-.12-.31V171.3a.39.39,0,0,1,.12-.3.41.41,0,0,1,.3-.12h1.33v-.61a3.48,3.48,0,0,1,.4-1.78,2.39,2.39,0,0,1,1.19-1,5.12,5.12,0,0,1,1.91-.32H83.9a.43.43,0,0,1,.31.12.44.44,0,0,1,.11.3v1.15a.45.45,0,0,1-.11.31.43.43,0,0,1-.31.12H82.77a1.1,1.1,0,0,0-.88.3,1.46,1.46,0,0,0-.24.9v.53h2.08A.41.41,0,0,1,84,171a.39.39,0,0,1,.11.3v1.15a.41.41,0,0,1-.11.31.41.41,0,0,1-.31.12H81.65v6.38a.41.41,0,0,1-.12.31.4.4,0,0,1-.29.12Z" transform="translate(-42.81 -159.76)"/><path class="cls-1" d="M90.1,179.69a4.2,4.2,0,0,1-1.79-.35,2.35,2.35,0,0,1-1.13-1.07,4,4,0,0,1-.38-1.84v-3.55H85.48a.41.41,0,0,1-.43-.43V171.3a.39.39,0,0,1,.12-.3.41.41,0,0,1,.31-.12H86.8v-2.8a.37.37,0,0,1,.13-.3.4.4,0,0,1,.29-.12h1.66a.41.41,0,0,1,.31.12.39.39,0,0,1,.12.3v2.8h2.11a.38.38,0,0,1,.29.12.39.39,0,0,1,.12.3v1.15a.41.41,0,0,1-.12.31.38.38,0,0,1-.29.12H89.31v3.35a1.92,1.92,0,0,0,.22,1,.9.9,0,0,0,.81.36h1.24a.36.36,0,0,1,.28.12A.4.4,0,0,1,92,178v1.25a.41.41,0,0,1-.12.31.36.36,0,0,1-.28.12Z" transform="translate(-42.81 -159.76)"/><path class="cls-1" d="M93.86,179.69a.38.38,0,0,1-.28-.12.41.41,0,0,1-.12-.31v-8a.44.44,0,0,1,.12-.3.38.38,0,0,1,.28-.12h1.67a.4.4,0,0,1,.29.12.41.41,0,0,1,.13.3V172a3,3,0,0,1,1-.82,3.38,3.38,0,0,1,1.43-.28h.73a.4.4,0,0,1,.29.12.39.39,0,0,1,.12.3v1.46a.41.41,0,0,1-.12.3.4.4,0,0,1-.29.12H97.66a1.46,1.46,0,0,0-1.59,1.59v4.49a.41.41,0,0,1-.43.43Z" transform="translate(-42.81 -159.76)"/><path class="cls-1" d="M104.66,179.86a4.27,4.27,0,0,1-3.09-1.09,4.33,4.33,0,0,1-1.22-3.15v-.73a5.11,5.11,0,0,1,.6-2.24,3.52,3.52,0,0,1,1.47-1.44,4.63,4.63,0,0,1,2.22-.5,4.49,4.49,0,0,1,2.38.58,3.69,3.69,0,0,1,1.44,1.59,5.24,5.24,0,0,1,.49,2.32v.39a.41.41,0,0,1-.13.29.46.46,0,0,1-.3.11H103v.14a2.65,2.65,0,0,0,.21,1,1.76,1.76,0,0,0,.56.72,1.46,1.46,0,0,0,.88.27,1.71,1.71,0,0,0,.69-.12,1.44,1.44,0,0,0,.45-.28,2,2,0,0,0,.26-.29.68.68,0,0,1,.25-.21.69.69,0,0,1,.29-.05h1.77a.4.4,0,0,1,.28.1.29.29,0,0,1,.09.26,1.54,1.54,0,0,1-.28.67,3.52,3.52,0,0,1-.77.78,4.63,4.63,0,0,1-1.26.63A5.49,5.49,0,0,1,104.66,179.86ZM103,174.45h3.32v0a2.64,2.64,0,0,0-.19-1.06,1.58,1.58,0,0,0-.57-.7,1.69,1.69,0,0,0-1.8,0,1.63,1.63,0,0,0-.56.7,2.64,2.64,0,0,0-.2,1.06Z" transform="translate(-42.81 -159.76)"/><path class="cls-1" d="M114.57,179.86a4.27,4.27,0,0,1-3.09-1.09,4.32,4.32,0,0,1-1.21-3.15v-.73a5,5,0,0,1,.59-2.24,3.48,3.48,0,0,1,1.48-1.44,4.6,4.6,0,0,1,2.22-.5,4.51,4.51,0,0,1,2.38.58,3.69,3.69,0,0,1,1.44,1.59,5.38,5.38,0,0,1,.48,2.32v.39a.37.37,0,0,1-.13.29.44.44,0,0,1-.29.11H112.9v.14a2.65,2.65,0,0,0,.21,1,1.68,1.68,0,0,0,.56.72,1.41,1.41,0,0,0,.87.27,1.71,1.71,0,0,0,.69-.12,1.44,1.44,0,0,0,.45-.28,3.09,3.09,0,0,0,.27-.29.67.67,0,0,1,.24-.21.71.71,0,0,1,.3-.05h1.76a.39.39,0,0,1,.28.1.29.29,0,0,1,.09.26,1.43,1.43,0,0,1-.28.67,3.31,3.31,0,0,1-.77.78,4.63,4.63,0,0,1-1.26.63A5.4,5.4,0,0,1,114.57,179.86Zm-1.67-5.41h3.32v0a2.64,2.64,0,0,0-.2-1.06,1.58,1.58,0,0,0-.57-.7,1.51,1.51,0,0,0-.89-.26,1.56,1.56,0,0,0-.9.26,1.58,1.58,0,0,0-.57.7,2.64,2.64,0,0,0-.19,1.06Z" transform="translate(-42.81 -159.76)"/><path class="cls-1" d="M124,179.86a5.74,5.74,0,0,1-1.81-.25A4,4,0,0,1,121,179a2.87,2.87,0,0,1-.69-.72,1.43,1.43,0,0,1-.25-.62.34.34,0,0,1,.12-.3.41.41,0,0,1,.27-.12h1.65a.18.18,0,0,1,.1,0,.18.18,0,0,1,.1.08c.15.1.3.22.46.35a2.29,2.29,0,0,0,.55.33,2,2,0,0,0,.79.13,1.78,1.78,0,0,0,1-.23.71.71,0,0,0,.39-.65.76.76,0,0,0-.18-.51,1.62,1.62,0,0,0-.67-.37,13,13,0,0,0-1.46-.37,6.75,6.75,0,0,1-1.56-.54,2.46,2.46,0,0,1-1-.86,2.26,2.26,0,0,1-.33-1.25,2.22,2.22,0,0,1,.42-1.27,3.22,3.22,0,0,1,1.23-1,4.68,4.68,0,0,1,2-.39,5.12,5.12,0,0,1,1.64.23,4.12,4.12,0,0,1,1.17.57,2.86,2.86,0,0,1,.72.71,1.34,1.34,0,0,1,.27.64.38.38,0,0,1-.1.29.38.38,0,0,1-.28.12h-1.5a.38.38,0,0,1-.28-.11,4.92,4.92,0,0,1-.41-.31,2.23,2.23,0,0,0-.5-.31,1.76,1.76,0,0,0-.75-.14,1.27,1.27,0,0,0-.85.25.76.76,0,0,0-.3.62.75.75,0,0,0,.15.44,1.42,1.42,0,0,0,.63.37,12.31,12.31,0,0,0,1.44.36,5.09,5.09,0,0,1,1.83.61,2.62,2.62,0,0,1,1,.94,2.36,2.36,0,0,1,.29,1.14,2.28,2.28,0,0,1-.47,1.41,3,3,0,0,1-1.38,1A6.33,6.33,0,0,1,124,179.86Z" transform="translate(-42.81 -159.76)"/><path class="cls-1" d="M51.29,183.16v4.52c0,.13-.22.24-.5.24H52v-4.74C51.79,183.18,51.54,183.18,51.29,183.16Z" transform="translate(-42.81 -159.76)"/><path class="cls-1" d="M52,187.92h1.25c-.28,0-.5-.11-.5-.24v-4.52c-.25,0-.5,0-.75,0v4.74Z" transform="translate(-42.81 -159.76)"/><path class="cls-2" d="M54.78,160.89l.09.09Z" transform="translate(-42.81 -159.76)"/><path class="cls-2" d="M55.2,161.32l.07.09Z" transform="translate(-42.81 -159.76)"/><path class="cls-2" d="M55.06,161.17l.08.09Z" transform="translate(-42.81 -159.76)"/><path class="cls-2" d="M54.92,161l.09.08Z" transform="translate(-42.81 -159.76)"/><path class="cls-2" d="M55.44,161.64l.06.08Z" transform="translate(-42.81 -159.76)"/><path class="cls-2" d="M55.32,161.48a.27.27,0,0,1,.07.08A.27.27,0,0,0,55.32,161.48Z" transform="translate(-42.81 -159.76)"/><path class="cls-2" d="M55.56,161.8l0,.09Z" transform="translate(-42.81 -159.76)"/><path class="cls-2" d="M54,160.32l.13.07Z" transform="translate(-42.81 -159.76)"/><path class="cls-2" d="M54.3,160.53l.12.07Z" transform="translate(-42.81 -159.76)"/><path class="cls-2" d="M54.14,160.42l.12.08Z" transform="translate(-42.81 -159.76)"/><path class="cls-2" d="M54.47,160.64l.1.08Z" transform="translate(-42.81 -159.76)"/><path class="cls-2" d="M54.62,160.76l.1.09Z" transform="translate(-42.81 -159.76)"/><path class="cls-2" d="M56.13,163.1a.29.29,0,0,1,0,.09A.29.29,0,0,0,56.13,163.1Z" transform="translate(-42.81 -159.76)"/><path class="cls-2" d="M52,159.76a4.65,4.65,0,0,1,1.72.45A4.65,4.65,0,0,0,52,159.76Z" transform="translate(-42.81 -159.76)"/><path class="cls-2" d="M56.18,163.31s0,.05,0,.08S56.19,163.33,56.18,163.31Z" transform="translate(-42.81 -159.76)"/><path class="cls-2" d="M56.22,163.52a.2.2,0,0,1,0,.07A.2.2,0,0,0,56.22,163.52Z" transform="translate(-42.81 -159.76)"/><path class="cls-2" d="M56.07,162.9l0,.09Z" transform="translate(-42.81 -159.76)"/><path class="cls-2" d="M55.76,162.15l.05.09Z" transform="translate(-42.81 -159.76)"/><path class="cls-2" d="M55.85,162.33l0,.09Z" transform="translate(-42.81 -159.76)"/><path class="cls-2" d="M55.93,162.52a.36.36,0,0,1,0,.09A.36.36,0,0,0,55.93,162.52Z" transform="translate(-42.81 -159.76)"/><path class="cls-2" d="M56,162.71l0,.09Z" transform="translate(-42.81 -159.76)"/><path class="cls-2" d="M55.66,162a.41.41,0,0,1,.05.09A.41.41,0,0,0,55.66,162Z" transform="translate(-42.81 -159.76)"/><path class="cls-2" d="M53.79,160.22l.14.08Z" transform="translate(-42.81 -159.76)"/><path class="cls-1" d="M52,182a1.87,1.87,0,1,1,0-3.74V177a3.74,3.74,0,0,1,0-7.48v-3.37a1.87,1.87,0,0,0,0-3.74v-2.62h-.25a4.49,4.49,0,0,0-4.47,4A4.74,4.74,0,0,0,44.8,168a4.62,4.62,0,0,0,.34,1.75,5.48,5.48,0,0,0,1.12,9.58A6.3,6.3,0,0,0,52,183.21V182Zm-4.37-14.1A1.13,1.13,0,1,1,48.8,169,1.13,1.13,0,0,1,47.67,167.86Z" transform="translate(-42.81 -159.76)"/><path class="cls-3" d="M58.54,169.48a4.89,4.89,0,0,0,.24-1.49,4.74,4.74,0,0,0-2.52-4.19l0-.21a.2.2,0,0,0,0-.07s0-.09,0-.13,0-.06,0-.08l0-.12a.29.29,0,0,0,0-.09l0-.11,0-.09,0-.1,0-.09a1,1,0,0,0,0-.1.36.36,0,0,0,0-.09.3.3,0,0,0,0-.1l0-.09,0-.09-.05-.09,0-.09a.41.41,0,0,0-.05-.09l0-.08,0-.09-.06-.08-.06-.08a.35.35,0,0,0,0-.08.27.27,0,0,0-.07-.08l0-.07-.07-.09-.06-.06-.08-.09-.05-.06-.09-.08-.05-.05-.09-.09-.06,0-.1-.09,0,0-.1-.08,0,0-.12-.08,0,0-.12-.08,0,0-.13-.07,0,0-.14-.08h0a4.65,4.65,0,0,0-1.72-.45h0v2.62a1.87,1.87,0,0,1,0,3.74v3.37A3.74,3.74,0,0,0,52,177v1.25A1.87,1.87,0,1,0,52,182v1.25a6.3,6.3,0,0,0,5.78-3.89,5.49,5.49,0,0,0,.72-9.84Zm-2.26,8.11a2.37,2.37,0,1,1,2.37-2.37A2.37,2.37,0,0,1,56.28,177.59Z" transform="translate(-42.81 -159.76)"/><circle class="cls-1" cx="13.47" cy="15.47" r="2.37"/><circle class="cls-3" cx="5.99" cy="8.11" r="1.12"/></svg>