<svg id="Layer_1" data-name="Layer 1" xmlns="http://www.w3.org/2000/svg" viewBox="0 0 85.86 28.17"><defs><style>.cls-1{font-size:16.95px;font-family:Rubik-SemiBold, Rubik;font-weight:600;}.cls-1,.cls-4{fill:#231f20;}.cls-2{letter-spacing:-0.01em;}.cls-3{letter-spacing:0.02em;}.cls-5{fill:#84ccaa;}.cls-6{fill:#d0e290;}</style></defs><text class="cls-1" transform="translate(23.69 19.93)"><tspan class="cls-2">n</tspan><tspan class="cls-3" x="10.63" y="0">f</tspan><tspan x="18.3" y="0">t</tspan><tspan class="cls-2" x="25.89" y="0">r</tspan><tspan x="33.16" y="0">ees</tspan></text><path class="cls-4" d="M51.29,183.16v4.52c0,.13-.22.24-.5.24H52v-4.74C51.79,183.18,51.54,183.18,51.29,183.16Z" transform="translate(-42.81 -159.76)"/><path class="cls-4" d="M52,187.92h1.25c-.28,0-.5-.11-.5-.24v-4.52c-.25,0-.5,0-.75,0v4.74Z" transform="translate(-42.81 -159.76)"/><path class="cls-5" d="M54.78,160.89l.09.09Z" transform="translate(-42.81 -159.76)"/><path class="cls-5" d="M55.2,161.32l.07.09Z" transform="translate(-42.81 -159.76)"/><path class="cls-5" d="M55.06,161.17l.08.09Z" transform="translate(-42.81 -159.76)"/><path class="cls-5" d="M54.92,161l.09.08Z" transform="translate(-42.81 -159.76)"/><path class="cls-5" d="M55.44,161.64l.06.08Z" transform="translate(-42.81 -159.76)"/><path class="cls-5" d="M55.32,161.48a.27.27,0,0,1,.07.08A.27.27,0,0,0,55.32,161.48Z" transform="translate(-42.81 -159.76)"/><path class="cls-5" d="M55.56,161.8l0,.09Z" transform="translate(-42.81 -159.76)"/><path class="cls-5" d="M54,160.32l.13.07Z" transform="translate(-42.81 -159.76)"/><path class="cls-5" d="M54.3,160.53l.12.07Z" transform="translate(-42.81 -159.76)"/><path class="cls-5" d="M54.14,160.42l.12.08Z" transform="translate(-42.81 -159.76)"/><path class="cls-5" d="M54.47,160.64l.1.08Z" transform="translate(-42.81 -159.76)"/><path class="cls-5" d="M54.62,160.76l.1.09Z" transform="translate(-42.81 -159.76)"/><path class="cls-5" d="M56.13,163.1a.29.29,0,0,1,0,.09A.29.29,0,0,0,56.13,163.1Z" transform="translate(-42.81 -159.76)"/><path class="cls-5" d="M52,159.76a4.65,4.65,0,0,1,1.72.45A4.65,4.65,0,0,0,52,159.76Z" transform="translate(-42.81 -159.76)"/><path class="cls-5" d="M56.18,163.31s0,.05,0,.08S56.19,163.33,56.18,163.31Z" transform="translate(-42.81 -159.76)"/><path class="cls-5" d="M56.22,163.52a.2.2,0,0,1,0,.07A.2.2,0,0,0,56.22,163.52Z" transform="translate(-42.81 -159.76)"/><path class="cls-5" d="M56.07,162.9l0,.09Z" transform="translate(-42.81 -159.76)"/><path class="cls-5" d="M55.76,162.15l.05.09Z" transform="translate(-42.81 -159.76)"/><path class="cls-5" d="M55.85,162.33l0,.09Z" transform="translate(-42.81 -159.76)"/><path class="cls-5" d="M55.93,162.52a.36.36,0,0,1,0,.09A.36.36,0,0,0,55.93,162.52Z" transform="translate(-42.81 -159.76)"/><path class="cls-5" d="M56,162.71l0,.09Z" transform="translate(-42.81 -159.76)"/><path class="cls-5" d="M55.66,162a.41.41,0,0,1,.05.09A.41.41,0,0,0,55.66,162Z" transform="translate(-42.81 -159.76)"/><path class="cls-5" d="M53.79,160.22l.14.08Z" transform="translate(-42.81 -159.76)"/><path class="cls-4" d="M52,182a1.87,1.87,0,1,1,0-3.74V177a3.74,3.74,0,0,1,0-7.48v-3.37a1.87,1.87,0,0,0,0-3.74v-2.62h-.25a4.49,4.49,0,0,0-4.47,4A4.74,4.74,0,0,0,44.8,168a4.62,4.62,0,0,0,.34,1.75,5.48,5.48,0,0,0,1.12,9.58A6.3,6.3,0,0,0,52,183.21V182Zm-4.37-14.1A1.13,1.13,0,1,1,48.8,169,1.13,1.13,0,0,1,47.67,167.86Z" transform="translate(-42.81 -159.76)"/><path class="cls-6" d="M58.54,169.48a4.89,4.89,0,0,0,.24-1.49,4.74,4.74,0,0,0-2.52-4.19l0-.21a.2.2,0,0,0,0-.07s0-.09,0-.13,0-.06,0-.08l0-.12a.29.29,0,0,0,0-.09l0-.11,0-.09,0-.1,0-.09a1,1,0,0,0,0-.1.36.36,0,0,0,0-.09.3.3,0,0,0,0-.1l0-.09,0-.09-.05-.09,0-.09a.41.41,0,0,0-.05-.09l0-.08,0-.09-.06-.08-.06-.08a.35.35,0,0,0,0-.08.27.27,0,0,0-.07-.08l0-.07-.07-.09-.06-.06-.08-.09-.05-.06-.09-.08-.05-.05-.09-.09-.06,0-.1-.09,0,0-.1-.08,0,0-.12-.08,0,0-.12-.08,0,0-.13-.07,0,0-.14-.08h0a4.65,4.65,0,0,0-1.72-.45h0v2.62a1.87,1.87,0,0,1,0,3.74v3.37A3.74,3.74,0,0,0,52,177v1.25A1.87,1.87,0,1,0,52,182v1.25a6.3,6.3,0,0,0,5.78-3.89,5.49,5.49,0,0,0,.72-9.84Zm-2.26,8.11a2.37,2.37,0,1,1,2.37-2.37A2.37,2.37,0,0,1,56.28,177.59Z" transform="translate(-42.81 -159.76)"/><circle class="cls-4" cx="13.47" cy="15.47" r="2.37"/><circle class="cls-6" cx="5.99" cy="8.11" r="1.12"/></svg>